<svg xmlns="http://www.w3.org/2000/svg" viewBox="0 0 865.17 865.02"><defs><style>.cls-1{fill:#213543;}.cls-2{fill:#61849d;}.cls-3{fill:#54748b;}.cls-4{fill:#486579;}.cls-5{fill:#3b5567;}.cls-6{fill:#1b2e3c;}.cls-7{fill:#000f1d;}.cls-8{fill:#84b2d2;}.cls-9{fill:#79a3c1;}.cls-10{fill:#6d94af;}.cls-11{fill:#2d4353;}</style></defs><g id="Layer_2" data-name="Layer 2"><g id="Capa_1" data-name="Capa 1"><path class="cls-1" d="M235.9,521.76H201V389.41l-22.44,12.5-16.32-27.54,47.68-30.6h26Z"/><path class="cls-1" d="M386.61,432.25q0,36.21-14.28,61.2-17.59,30.36-51.26,30.35-33.92,0-51.51-30.09Q255,469,255,432.76t14.53-61.2q17.6-30.35,51.51-30.34,33.66,0,51.26,30.09Q386.61,396,386.61,432.25Zm-36.72.51q0-20.89-4.85-35.19-7.4-21.17-24-21.16-17.08,0-24.48,20.91-5.1,14.28-5.1,35.44,0,20.91,5.1,35.19,7.4,20.91,24.48,20.91Q349.89,488.86,349.89,432.76Z"/><path class="cls-1" d="M524.56,432.25q0,36.21-14.28,61.2Q492.69,523.81,459,523.8q-33.91,0-51.51-30.09Q393,469,393,432.76t14.54-61.2q17.6-30.35,51.51-30.34,33.66,0,51.25,30.09Q524.56,396,524.56,432.25Zm-36.72.51q0-20.89-4.84-35.19-7.39-21.17-24-21.16-17.08,0-24.48,20.91-5.12,14.28-5.1,35.44,0,20.91,5.1,35.19,7.4,20.91,24.48,20.91Q487.85,488.86,487.84,432.76Z"/><path class="cls-1" d="M619,420.36q0,16.8-7,27.4-8.4,12.6-24.6,12.6t-24.6-12.6q-7.2-10.61-7.2-27.4t7.2-27.4q8.4-12.6,24.6-12.6T612,393Q619,403.56,619,420.36Zm-21.6,0q0-18.8-10-18.8-10.2,0-10.2,18.8t10.2,18.8Q597.35,439.16,597.36,420.36Zm77-38.2-63.8,139.6H584l64-139.6ZM703,483.76q0,16.61-7.2,27.4-8.4,12.6-24.6,12.6t-24.6-12.6q-7-10.8-7-27.4,0-16.8,7-27.6,8.4-12.6,24.6-12.6t24.6,12.6Q703,467,703,483.76Zm-21.6,0q0-18.79-10.2-18.8T661,483.76q0,18.6,10.2,18.6T681.36,483.76Z"/><path class="cls-2" d="M807.21,648.8a434.59,434.59,0,0,1-45,63.86l-1.81,2.11-1.2,1.38q-10,11.43-20.75,22.24a435.88,435.88,0,0,1-45.33,39.49l-66.85-92c1.55-1.19,3.09-2.4,4.62-3.61L632.5,681l3.11-2.54A315.58,315.58,0,0,0,687,624.89q5.26-7,10.11-14.19c.13-.19.25-.38.38-.56q1.85-2.76,3.64-5.55l1.1-1.74c.94-1.5,1.88-3,2.8-4.51.56-.91,1.09-1.82,1.64-2.74.72-1.2,1.44-2.41,2.14-3.62s1.39-2.46,2.08-3.69c.51-.92,1-1.84,1.54-2.76q1.27-2.34,2.51-4.71c.32-.6.64-1.2,1-1.8,1-2,2-3.95,3-5.94.1-.2.2-.4.29-.6q3.83-7.8,7.24-15.85,3.81-9,7-18.18l108.11,35.13q-5,14.59-11,28.75A437.28,437.28,0,0,1,807.21,648.8Z"/><path class="cls-3" d="M597.94,832.25q-2.66,1.1-5.31,2.15l-2.19.87c-1.08.43-2.17.84-3.26,1.26-1.41.54-2.81,1.07-4.22,1.59l-1.21.45a435.68,435.68,0,0,1-112.95,25q-14.13,1.17-28.42,1.42V751.33a319.79,319.79,0,0,0,116.33-25,320.29,320.29,0,0,0,36.94-18.55l1.58-.93c1.16-.69,2.32-1.38,3.47-2.08,1.67-1,3.32-2,5-3.09l1.74-1.12q2.29-1.49,4.58-3l1-.69,2.67-1.82,66.85,92q-15.31,10.66-31.65,20.11a434.62,434.62,0,0,1-50.77,25Z"/><path class="cls-4" d="M399.56,863.86l-2.72-.22a435.52,435.52,0,0,1-120.09-27.59l-.95-.37c-1.5-.58-3-1.18-4.49-1.78l-2.95-1.19-2.51-1q-2.49-1-5-2.1l-.52-.23a434.76,434.76,0,0,1-44.08-22.2Q200,797.71,184.64,787l66.85-92c.77.54,1.55,1.07,2.33,1.6l2,1.33c1.08.72,2.17,1.43,3.26,2.14q5.82,3.78,11.8,7.3h0a320.4,320.4,0,0,0,37.57,18.92,316.09,316.09,0,0,0,81.23,22.21l2.75.36.41.05a318.46,318.46,0,0,0,31.94,2.39V865q-12.21-.22-24.33-1.09Z"/><path class="cls-5" d="M126.7,738.39q-10.61-10.6-20.39-21.83c-.61-.69-1.21-1.39-1.81-2.09l-1.39-1.62A436.53,436.53,0,0,1,34.65,602.28q-6-14.13-11-28.7l108.11-35.13q3.22,9.18,7,18.18,3.41,8.05,7.24,15.85c.09.2.19.4.29.6,1,2,2,4,3,5.94.31.6.63,1.2.95,1.8q1.23,2.37,2.51,4.71c.5.92,1,1.84,1.54,2.76.69,1.23,1.38,2.47,2.08,3.69s1.42,2.42,2.14,3.63c.55.91,1.08,1.82,1.64,2.73q1.38,2.26,2.81,4.51c.36.58.72,1.16,1.09,1.74,1.2,1.86,2.41,3.71,3.65,5.55l.37.56q4.86,7.21,10.11,14.19a315.52,315.52,0,0,0,52.13,54.18l2,1.65,2.22,1.77q2.15,1.71,4.32,3.37l-66.85,92A434.85,434.85,0,0,1,126.7,738.39Z"/><path class="cls-6" d="M58,216.22a433.58,433.58,0,0,1,45-63.93l1.66-1.94,1.42-1.63q9.89-11.35,20.62-22.1A434.75,434.75,0,0,1,172,87.14l66.85,92q-2.31,1.77-4.58,3.58l-1.67,1.33c-1,.8-2,1.62-3,2.43a315.76,315.76,0,0,0-51.46,53.63q-5.26,7-10.11,14.2c-.13.18-.25.37-.37.56-1.24,1.84-2.45,3.68-3.65,5.55-.37.57-.73,1.16-1.09,1.73-.95,1.5-1.89,3-2.81,4.52-.56.9-1.09,1.82-1.64,2.73-.71,1.21-1.44,2.41-2.14,3.63s-1.39,2.45-2.08,3.68c-.51.93-1,1.84-1.54,2.77q-1.27,2.34-2.51,4.7L149.3,286c-1,2-2,3.95-3,5.94l-.29.59q-3.83,7.82-7.24,15.86-3.81,9-7,18.17L23.63,291.44q5-14.56,11-28.69A437.46,437.46,0,0,1,58,216.22Z"/><path class="cls-7" d="M267.7,32.58c1.44-.6,2.88-1.18,4.33-1.76l3.16-1.25,2.27-.88c1.73-.66,3.46-1.32,5.2-2l.2-.07A435.57,435.57,0,0,1,396.75,1.38l2.9-.23.68,0Q412.51.21,424.79,0V113.69a316.4,316.4,0,0,0-32.13,2.41h0c-1,.12-2,.26-3.05.4a315.41,315.41,0,0,0-81.11,22.19,320.71,320.71,0,0,0-37.1,18.64l-1.19.7c-1.27.75-2.53,1.5-3.79,2.27-1.61,1-3.2,2-4.79,3-.66.41-1.31.84-2,1.27q-2.16,1.4-4.31,2.83l-1.21.81c-.88.59-1.75,1.18-2.61,1.78L184.64,78Q200,67.32,216.29,57.88A434.46,434.46,0,0,1,266.57,33Z"/><path class="cls-8" d="M465.56,1.15l2.82.23A435.23,435.23,0,0,1,588.26,28.91l1.24.47,4.19,1.67L597,32.37l2.19.91q2.65,1.09,5.28,2.24l.2.08a433.93,433.93,0,0,1,44.25,22.28Q665.21,67.32,680.53,78l-66.85,92-2.41-1.66-1.76-1.17c-1.19-.79-2.38-1.58-3.58-2.35l-2.54-1.64-1.08-.68q-3.85-2.42-7.78-4.73l-.41-.25a319.88,319.88,0,0,0-37.41-18.82,315.41,315.41,0,0,0-81.11-22.19c-1-.14-2-.28-3.05-.4h0a316.4,316.4,0,0,0-32.13-2.41V0q12.25.21,24.39,1.1Z"/><path class="cls-9" d="M738.47,126.62q10.63,10.63,20.44,21.89c.58.67,1.16,1.33,1.73,2l1.44,1.68a433.77,433.77,0,0,1,45.13,64,439.41,439.41,0,0,1,23.3,46.48q6,14.15,11,28.74L733.43,326.56q-3.23-9.17-7-18.17-3.4-8.06-7.24-15.86l-.29-.59c-1-2-2-4-3-5.94l-1-1.81q-1.23-2.35-2.51-4.7c-.5-.93-1-1.84-1.54-2.77-.69-1.23-1.38-2.46-2.08-3.68s-1.42-2.42-2.14-3.63c-.55-.91-1.08-1.83-1.64-2.73q-1.38-2.28-2.81-4.51c-.36-.58-.72-1.17-1.09-1.74q-1.8-2.79-3.64-5.55c-.13-.19-.25-.38-.38-.56q-4.86-7.22-10.11-14.2a316.41,316.41,0,0,0-51.94-54l-2.29-1.87-2.07-1.65c-1.45-1.15-2.92-2.3-4.39-3.42l66.85-92A435.78,435.78,0,0,1,738.47,126.62Z"/><path class="cls-10" d="M865.17,432.51a426.6,426.6,0,0,1-14.74,112q-1.93,7.18-4.09,14.28L738.25,523.63q.74-2.45,1.43-4.91c0-.18.09-.35.14-.52.29-1.05.58-2.09.86-3.14s.55-2.1.82-3.15c0-.17.09-.34.14-.51a319.2,319.2,0,0,0,9.81-72c0-.19,0-.37,0-.55,0-1,0-1.92,0-2.89,0-.44,0-.89,0-1.33V430.4c0-.44,0-.89,0-1.34,0-1,0-1.92,0-2.88,0-.18,0-.37,0-.55a319.2,319.2,0,0,0-9.81-72l-.12-.45c-.28-1.07-.55-2.15-.84-3.22l-.84-3.05c-.06-.21-.11-.41-.17-.61-.46-1.64-.93-3.27-1.42-4.91l108.09-35.12q2.16,7.1,4.09,14.29a426.6,426.6,0,0,1,14.74,112Z"/><path class="cls-11" d="M125.5,346.29c-.06.2-.11.4-.17.61l-.84,3.05c-.29,1.07-.56,2.15-.84,3.22l-.12.45a319.2,319.2,0,0,0-9.81,72c0,.18,0,.37,0,.55,0,1,0,1.92,0,2.88,0,.45,0,.9,0,1.34v4.22c0,.44,0,.89,0,1.33,0,1,0,1.93,0,2.89,0,.18,0,.37,0,.55a319.2,319.2,0,0,0,9.81,72c0,.17.09.34.13.51.28,1.05.55,2.1.83,3.15s.57,2.09.86,3.14c.05.17.1.34.14.52q.69,2.46,1.43,4.91L18.83,558.75q-2.16-7.1-4.09-14.28a430.72,430.72,0,0,1,0-223.92q1.92-7.2,4.09-14.29l108.09,35.12C126.43,343,126,344.65,125.5,346.29Z"/></g></g></svg>